<svg xmlns="http://www.w3.org/2000/svg" xmlns:xlink="http://www.w3.org/1999/xlink" width="372" height="372" viewBox="0 0 372 372">
  <defs>
    <style>
      .cls-1 {
        clip-path: url(#clip-item-fly);
      }

      .cls-2 {
        fill: #101a01;
      }
    </style>
    <clipPath id="clip-item-fly">
      <rect width="372" height="372"/>
    </clipPath>
  </defs>
  <g id="item-fly" class="cls-1">
    <g id="Gruppe_56" data-name="Gruppe 56" transform="translate(35 29.922)">
      <path id="Pfad_167" data-name="Pfad 167" class="cls-2" d="M3071.732,6220.021s-2.829-8.5-13.2-8.336-16.409,21.5-16.409,21.5-5.987,8.944-3.518,17.955S3052,6269.228,3052,6269.228s1.675,9.276,6.532,9.437a3.234,3.234,0,0,0,1.232-.227c.25-.08-.433-2.42,0-2.713.183-.119,1.282,1.962,1.619,1.631,2.542-2.423,3.616-10.208,3.616-10.208l11.537-6.685s13.583,11.993,24.771,14.183,19.981-5.419,19.981-5.419,2.188,7.61,16,5.419,32.769-12.867,39.264-14.183,40.674,0,40.674,0,15.521,3.563,21.99-7.194-9.963-27.708-9.963-27.708,17.622-.724,33.219-5.791c15.117-4.911,28.208-14.159,28.438-17.393.458-6.48-7.644-6-20.328-8.909-5.5-1.261-9.416-.761-15.41-1.387a76.952,76.952,0,0,0-8.752-2.439,27.525,27.525,0,0,0-7.2,0,20.258,20.258,0,0,0,7.2-4.827c2.914-3.259,2.868-9.443,2.868-9.443s9.594-2.17,13.184-6.172a6.546,6.546,0,0,0,0-8.855c-6.753-7.528-28.126.348-58.386,8.855-36.912,8.763-39.154,23.158-56.775,24.268C3104.232,6196.181,3071.732,6220.021,3071.732,6220.021Z" transform="translate(-3010.451 -6093)"/>
      <path id="Pfad_168" data-name="Pfad 168" class="cls-2" d="M3078.252,6288.283s-1.584,5.9-3.089,11.913-2.93,12.124-2.93,12.124l-16.04,18.017s-11.866.267-10.349,5.141c.783,2.515,5.6,4.149,8.708,2.988,2.482-.924,3.288-4.578,3.288-4.578l19.227-19.992,5.348-22.415Z" transform="translate(-3012.079 -6120.671)"/>
      <path id="Pfad_169" data-name="Pfad 169" class="cls-2" d="M3087.927,6295.1a141.067,141.067,0,0,0-4.115,16.439,158.343,158.343,0,0,0-1.968,17.438l-14.678,21.552s-8.3-.219-8.827,1.6,3.7,5.674,6.735,5.674,5.4-5.674,5.4-5.674l15.919-22.015s.846-8,2.3-16.09,3.522-16.262,3.522-16.262Z" transform="translate(-3014.738 -6122.111)"/>
      <path id="Pfad_170" data-name="Pfad 170" class="cls-2" d="M3169.731,6300.208a52.575,52.575,0,0,0-4.466,8.773c-1.116,3.45,0,5.026,0,5.026s-5.288,8.887-7.051,15.871a22.829,22.829,0,0,0,0,12.066l-8.749,20.78s-4.467,4.359-4.2,5.812,5.254,0,5.254,0,3.5,1.453,4.665,0,0-5.812,0-5.812l3.035-11.839,11.517-35.221,9.211-15.457v-4.489Z" transform="translate(-3033.11 -6122.242)"/>
      <path id="Pfad_171" data-name="Pfad 171" class="cls-2" d="M24.481,4.489a52.59,52.59,0,0,0-4.465,8.773c-1.116,3.45,0,5.027,0,5.027s-5.288,8.887-7.051,15.871a22.827,22.827,0,0,0,0,12.067L4.216,67.006s-4.467,4.359-4.2,5.812,5.254,0,5.254,0,3.5,1.453,4.665,0,0-5.812,0-5.812l3.035-11.84L24.481,19.946,33.693,4.489V0Z" transform="translate(127.897 155.269) rotate(-9)"/>
      <path id="Pfad_172" data-name="Pfad 172" class="cls-2" d="M3209.729,6286.709l24.893,5.489,25.2,3.882a48.007,48.007,0,0,1,4.126,12.544,51.133,51.133,0,0,1,0,13.462l20.28,17.211,24.626,12.272,6.889,6.3s7.75,1.53,8,0-8-7.772-8-7.772-2.762.979-11-2.867-21.944-12.52-21.944-12.52a38.493,38.493,0,0,0-5.463-6.873,48.97,48.97,0,0,0-7.493-5.753s1.474-10,0-17.468-4.386-8.855-10.023-13.78a25.367,25.367,0,0,0-12.524-5.689Z" transform="translate(-3046.734 -6120.008)"/>
      <path id="Pfad_173" data-name="Pfad 173" class="cls-2" d="M3286.668,6283.149l1.667,9.4-.877,9.407a53.808,53.808,0,0,1,8.794,5.8c3.163,2.836-2.95.626,3.856,5.547s23.367,14.137,23.367,14.137l11.864,4.108s3.987,3.248,3.767,4.763-3.767.855-3.767.855l-11.049-8.081a43.787,43.787,0,0,1-10.453-4.235,151.071,151.071,0,0,1-13.729-8.893l-17.558-14-1.9-16.7Z" transform="translate(-3061.718 -6119.586)"/>
      <path id="Pfad_174" data-name="Pfad 174" class="cls-2" d="M3040.453,6256.1s-3.881,2.076-5.175,3.5,0,2.2,0,2.2-4.709,4.433-4.081,7.154,4.081.809,4.081.809-2.2,5.11-.939,6.817,5.05-1.974,5.05-1.974Z" transform="translate(-3009 -6113.871)"/>
    </g>
  </g>
</svg>
